<svg xmlns="http://www.w3.org/2000/svg" width="45.858" height="35.184" viewBox="0 0 45.858 35.184">
  <g id="chat_icon" data-name="chat icon" transform="translate(0.5 0.5)">
    <path id="Union_36" data-name="Union 36" d="M-293.713-306.934a15.235,15.235,0,0,1-2.787-8.782c0-8.717,7.387-15.784,16.5-15.784s16.5,7.067,16.5,15.784-7.387,15.785-16.5,15.785a17.028,17.028,0,0,1-7.707-1.824l-9.722,2.255Z" transform="translate(297.429 331.5)" fill="#ffc600" stroke="#ffefb5" stroke-linecap="round" stroke-linejoin="round" stroke-width="1"/>
    <path id="Union_35" data-name="Union 35" d="M-296.5-321.408c0-5.574,5.148-10.092,11.5-10.092s11.5,4.518,11.5,10.092a9.048,9.048,0,0,1-1.142,4.389l2.07,4.869-6.412-.656a12.658,12.658,0,0,1-6.017,1.49C-291.352-311.315-296.5-315.834-296.5-321.408Z" transform="translate(317.429 345.5)" fill="#072ac8" stroke="#072ac8" stroke-linecap="round" stroke-linejoin="round" stroke-width="1"/>
  </g>
</svg>
