<svg id="home_icon" data-name="home icon" xmlns="http://www.w3.org/2000/svg" width="47.213" height="44.84" viewBox="0 0 47.213 44.84">
  <g id="Union_33" data-name="Union 33" transform="translate(303.167 333.839)" fill="#fac200">
    <path d="M -286.5002136230469 -289.4990539550781 L -294.000244140625 -289.4999084472656 C -295.3786315917969 -289.4999084472656 -296.5 -290.6212768554688 -296.5 -291.9996032714844 L -296.5 -314.7713928222656 C -296.5 -315.0667724609375 -296.4137878417969 -315.3526611328125 -296.250732421875 -315.5981750488281 L -295.7589721679688 -316.3384704589844 L -279.5003967285156 -331.3202209472656 L -263.2408752441406 -316.3383483886719 L -262.7491760253906 -315.5981750488281 C -262.5861206054688 -315.3526611328125 -262.4999084472656 -315.0667724609375 -262.4999084472656 -314.7713928222656 L -262.4999084472656 -291.9996032714844 C -262.4999084472656 -290.6212768554688 -263.6212768554688 -289.4999084472656 -264.9996032714844 -289.4999084472656 L -272.4996948242188 -289.4999084472656 L -272.4996948242188 -302.1083984375 C -272.4996948242188 -304.0381469726563 -274.070068359375 -305.6080932617188 -276.0003051757813 -305.6080932617188 L -282.9996032714844 -305.6080932617188 C -284.9298400878906 -305.6080932617188 -286.5002136230469 -304.0381469726563 -286.5002136230469 -302.1083984375 L -286.5002136230469 -289.4990539550781 Z" stroke="none"/>
    <path d="M -287.0002136230469 -289.9991149902344 L -287.0002136230469 -302.1083984375 C -287.0002136230469 -304.3138427734375 -285.2055358886719 -306.1080932617188 -282.9996032714844 -306.1080932617188 L -276.0003051757813 -306.1080932617188 C -273.7943725585938 -306.1080932617188 -271.9996948242188 -304.3138427734375 -271.9996948242188 -302.1083984375 L -271.9996948242188 -289.9999084472656 L -264.9996032714844 -289.9999084472656 C -263.89697265625 -289.9999084472656 -262.9999084472656 -290.89697265625 -262.9999084472656 -291.9996032714844 L -262.9999084472656 -314.7713928222656 C -262.9999084472656 -314.968017578125 -263.0572204589844 -315.1582336425781 -263.1656799316406 -315.3215026855469 L -263.6240234375 -316.0115356445313 L -279.5003967285156 -330.6403198242188 L -295.3757934570313 -316.0116577148438 L -295.834228515625 -315.3215026855469 C -295.9426879882813 -315.1582336425781 -296 -314.968017578125 -296 -314.7713928222656 L -296 -291.9996032714844 C -296 -290.89697265625 -295.1029357910156 -289.9999084472656 -294.0002136230469 -289.9999084472656 L -287.0002136230469 -289.9991149902344 M -286.0002136230469 -288.9989929199219 L -286.0010986328125 -288.9989929199219 L -294.0003051757813 -288.9999084472656 C -295.6545104980469 -288.9999084472656 -297 -290.3453979492188 -297 -291.9996032714844 L -297 -314.7713928222656 C -297 -315.1789245605469 -296.87744140625 -315.5583190917969 -296.6672058105469 -315.8748168945313 L -297 -315.8748168945313 L -279.5003967285156 -332.0001220703125 L -261.9999084472656 -315.8748168945313 L -262.3327026367188 -315.8748168945313 C -262.1224670410156 -315.5583190917969 -261.9999084472656 -315.1789245605469 -261.9999084472656 -314.7713928222656 L -261.9999084472656 -291.9996032714844 C -261.9999084472656 -290.3453979492188 -263.3453979492188 -288.9999084472656 -264.9996032714844 -288.9999084472656 L -272.9996948242188 -288.9999084472656 L -272.9996948242188 -302.1083984375 C -272.9996948242188 -303.76171875 -274.3460998535156 -305.1080932617188 -276.0003051757813 -305.1080932617188 L -282.9996032714844 -305.1080932617188 C -284.65380859375 -305.1080932617188 -286.0002136230469 -303.76171875 -286.0002136230469 -302.1083984375 L -286.0002136230469 -288.9999084472656 L -286.0002136230469 -288.9989929199219 Z" stroke="none" fill="#f1e2ab"/>
  </g>
  <g id="Union_32" data-name="Union 32" transform="translate(295.758 330.758)" fill="#fac200">
    <path d="M -292.7574157714844 -304.7508544921875 C -293.4250793457031 -304.7508544921875 -294.0528564453125 -305.0109558105469 -294.5251159667969 -305.4832458496094 C -294.9974365234375 -305.95556640625 -295.2575378417969 -306.5833740234375 -295.2575378417969 -307.2510070800781 C -295.2575378417969 -307.9186401367188 -294.9974365234375 -308.5464477539063 -294.525146484375 -309.0187683105469 L -274.0186462402344 -329.5252685546875 C -273.5468139648438 -329.9970703125 -272.919189453125 -330.2569274902344 -272.2514343261719 -330.2569274902344 C -272.2263488769531 -330.2569274902344 -272.2013549804688 -330.2565612792969 -272.17626953125 -330.2557983398438 L -272.1596374511719 -330.2553100585938 L -272.1429748535156 -330.2559204101563 C -272.1121520996094 -330.2570495605469 -272.0812072753906 -330.2576293945313 -272.0503540039063 -330.2576293945313 C -271.3825988769531 -330.2576293945313 -270.7547302246094 -329.9975280761719 -270.2824401855469 -329.5252380371094 L -249.7759552001953 -309.0187683105469 C -248.8016052246094 -308.0444030761719 -248.8016662597656 -306.4583129882813 -249.7761077880859 -305.4831237792969 C -250.2481384277344 -305.0114440917969 -250.8761138916016 -304.7515258789063 -251.5440521240234 -304.7515258789063 C -252.2119140625 -304.7515258789063 -252.8395843505859 -305.0113830566406 -253.3114624023438 -305.4832458496094 L -271.7969970703125 -323.9688110351563 L -272.1505432128906 -324.3223876953125 L -272.5040893554688 -323.9688110351563 L -290.9896545410156 -305.4832458496094 C -291.4619445800781 -305.0109558105469 -292.0897521972656 -304.7508544921875 -292.7574157714844 -304.7508544921875 Z" stroke="none"/>
    <path d="M -292.7574157714844 -305.2508544921875 C -292.2232971191406 -305.2508544921875 -291.7210693359375 -305.4589538574219 -291.3432312011719 -305.8368225097656 L -272.857666015625 -324.3223876953125 L -272.1505432128906 -325.0294799804688 L -271.4434204101563 -324.3223876953125 L -252.9579010009766 -305.8368225097656 C -252.5804748535156 -305.4593811035156 -252.0783538818359 -305.2515258789063 -251.5440521240234 -305.2515258789063 C -251.0095977783203 -305.2515258789063 -250.5071411132813 -305.45947265625 -250.1297912597656 -305.8365173339844 C -249.3501434326172 -306.6167907714844 -249.3500213623047 -307.8857116699219 -250.1295166015625 -308.6651916503906 L -270.635986328125 -329.1716918945313 C -271.0138549804688 -329.5495300292969 -271.5161437988281 -329.7576293945313 -272.0503540039063 -329.7576293945313 C -272.0750732421875 -329.7576293945313 -272.0998840332031 -329.7571716308594 -272.1246032714844 -329.7562561035156 L -272.157958984375 -329.7550354003906 L -272.1913452148438 -329.7560424804688 C -272.2113952636719 -329.7566223144531 -272.2313842773438 -329.7569274902344 -272.2514343261719 -329.7569274902344 C -272.78564453125 -329.7569274902344 -273.2876892089844 -329.5491027832031 -273.6650695800781 -329.1716918945313 L -294.1715698242188 -308.6651916503906 C -294.5494384765625 -308.287353515625 -294.7575378417969 -307.7850952148438 -294.7575378417969 -307.2510070800781 C -294.7575378417969 -306.7169189453125 -294.5494384765625 -306.2146606445313 -294.1715698242188 -305.8367919921875 C -293.7937316894531 -305.4589538574219 -293.29150390625 -305.2508544921875 -292.7574157714844 -305.2508544921875 M -292.7574157714844 -304.2508544921875 C -293.5251159667969 -304.2508544921875 -294.2928161621094 -304.5437927246094 -294.8786926269531 -305.1296997070313 C -296.0505065917969 -306.301513671875 -296.0505065917969 -308.2005004882813 -294.8786926269531 -309.372314453125 L -274.3721923828125 -329.8788146972656 C -273.7868041992188 -330.4642028808594 -273.0191650390625 -330.7569274902344 -272.2514038085938 -330.7569274902344 C -272.2213745117188 -330.7569274902344 -272.19140625 -330.7564697265625 -272.161376953125 -330.7555847167969 C -272.1244201660156 -330.7569274902344 -272.0873413085938 -330.7576293945313 -272.0503540039063 -330.7576293945313 C -271.2825927734375 -330.7576293945313 -270.5148315429688 -330.4647216796875 -269.9288940429688 -329.8788146972656 L -249.4224090576172 -309.372314453125 C -248.2515106201172 -308.201416015625 -248.2515106201172 -306.301513671875 -249.4224090576172 -305.1296997070313 C -250.0083160400391 -304.5442504882813 -250.7762298583984 -304.2515258789063 -251.5440521240234 -304.2515258789063 C -252.3118591308594 -304.2515258789063 -253.0795593261719 -304.5442504882813 -253.6650085449219 -305.1296997070313 L -272.1505432128906 -323.6152648925781 L -290.6361083984375 -305.1296997070313 C -291.2220153808594 -304.5437927246094 -291.9897155761719 -304.2508544921875 -292.7574157714844 -304.2508544921875 Z" stroke="none" fill="#f1e2ab"/>
  </g>
  <path id="Rectangle_628" data-name="Rectangle 628" d="M3,0H8a3,3,0,0,1,3,3V14a0,0,0,0,1,0,0H0a0,0,0,0,1,0,0V3A3,3,0,0,1,3,0Z" transform="translate(18.167 29.839)" fill="#072ac8"/>
</svg>
