<svg xmlns="http://www.w3.org/2000/svg" width="25.233" height="25.232" viewBox="0 0 25.233 25.232">
  <path id="anger_chart" data-name="anger chart" d="M20.8,25.232H4.438A4.441,4.441,0,0,1,0,20.8V4.436A4.441,4.441,0,0,1,4.438,0H20.8a4.441,4.441,0,0,1,4.436,4.436V20.8A4.441,4.441,0,0,1,20.8,25.232ZM7.964,16.15a.846.846,0,0,0,0,1.693h9.31a.846.846,0,0,0,0-1.693Zm10.11-8.943a.76.76,0,0,0-.541.224l-2.3,2.3,0,.005,0,.005a1.509,1.509,0,1,0,2.132.032l1.261-1.261a.766.766,0,0,0-.541-1.308Zm-10.911,0a.765.765,0,0,0-.541,1.307L7.883,9.774a1.508,1.508,0,1,0,2.132-.032.036.036,0,0,1-.007-.008L7.7,7.43A.761.761,0,0,0,7.164,7.206Z" transform="translate(-0.002)" fill="#ff3636"/>
</svg>
