<svg xmlns="http://www.w3.org/2000/svg" width="25" height="25" viewBox="0 0 25 25">
  <path id="disgust_chart" data-name="disgust chart" d="M20.605,25H4.4A4.4,4.4,0,0,1,0,20.605V4.395A4.4,4.4,0,0,1,4.4,0H20.6A4.4,4.4,0,0,1,25,4.395V20.6A4.4,4.4,0,0,1,20.605,25Zm-6.474-7.7h0l1.277.853a.513.513,0,0,0,.454.06l1.568-.522a.5.5,0,0,0,.3-.258A.523.523,0,0,0,17.1,16.7l-1.326.441-1.355-.9a.519.519,0,0,0-.58,0l-1.278.851-1.278-.856a.522.522,0,0,0-.58,0l-1.355.9L8.026,16.7a.523.523,0,1,0-.33.993l1.568.523a.515.515,0,0,0,.454-.06L11,17.3l1.278.852a.522.522,0,0,0,.58,0l1.277-.852Zm4.18-7.42a.518.518,0,0,0-.313.1l-2.091,1.568a.523.523,0,0,0,0,.836L18,13.956a.512.512,0,0,0,.312.1.522.522,0,0,0,.315-.941l-1.533-1.149,1.533-1.15a.524.524,0,0,0,.1-.732A.519.519,0,0,0,18.312,9.88Zm-11.5,0a.522.522,0,0,0-.315.94l1.533,1.15L6.5,13.12a.523.523,0,0,0,.627.836L9.22,12.389a.523.523,0,0,0,0-.836L7.129,9.985A.517.517,0,0,0,6.816,9.88Zm0-3.134a.516.516,0,0,0-.233.055L4.492,7.847a.523.523,0,1,0,.466.936L7.049,7.737a.523.523,0,0,0-.234-.991Zm11.563,0a.523.523,0,0,0-.24.988l2.025,1.045a.521.521,0,0,0,.7-.225.523.523,0,0,0,.033-.4.516.516,0,0,0-.258-.305L18.617,6.8A.517.517,0,0,0,18.378,6.744Z" fill="#9bd355"/>
</svg>
