<svg xmlns="http://www.w3.org/2000/svg" width="25.465" height="25.461" viewBox="0 0 25.465 25.461">
  <path id="joy_chart" data-name="joy chart" d="M20.988,25.461H4.477A4.481,4.481,0,0,1,0,20.985V4.476A4.481,4.481,0,0,1,4.477,0H20.988a4.481,4.481,0,0,1,4.477,4.476V20.984A4.482,4.482,0,0,1,20.988,25.461ZM7.827,14.04a.739.739,0,0,0-.283.057.736.736,0,0,0-.4.963,6.037,6.037,0,0,0,5.664,3.61,6.08,6.08,0,0,0,5.63-3.592.739.739,0,0,0-.383-.968.73.73,0,0,0-.292-.061.738.738,0,0,0-.677.445,4.608,4.608,0,0,1-4.278,2.7,4.569,4.569,0,0,1-4.3-2.7A.735.735,0,0,0,7.827,14.04Zm8.536-5.37a.91.91,0,0,1,.909.909.614.614,0,0,0,1.228,0,2.137,2.137,0,1,0-4.273,0,.614.614,0,0,0,1.228,0A.91.91,0,0,1,16.364,8.67ZM9.556,8.663a.91.91,0,0,1,.909.909.614.614,0,0,0,1.228,0,2.137,2.137,0,0,0-4.274,0,.614.614,0,0,0,1.228,0A.91.91,0,0,1,9.556,8.663Z" fill="#ff9200"/>
</svg>
