<svg xmlns="http://www.w3.org/2000/svg" width="26.001" height="26.001" viewBox="0 0 26.001 26.001">
  <path id="sad_chart" data-name="sad chart" d="M21.43,26H4.571A4.576,4.576,0,0,1,0,21.43V4.571A4.576,4.576,0,0,1,4.571,0H21.43A4.576,4.576,0,0,1,26,4.571V21.429A4.577,4.577,0,0,1,21.43,26ZM13.267,14.59a6.163,6.163,0,0,0-5.783,3.687.752.752,0,0,0,.406.983.752.752,0,0,0,.983-.406,4.667,4.667,0,0,1,4.394-2.759,4.708,4.708,0,0,1,4.369,2.76.752.752,0,1,0,1.38-.6A6.206,6.206,0,0,0,13.267,14.59ZM6.4,15.272a2.283,2.283,0,0,0-1.435.4.668.668,0,0,0-.028.938.747.747,0,0,0,.464.194.611.611,0,0,0,.446-.213A1.224,1.224,0,0,0,6.119,16a2.028,2.028,0,0,1,.332-.732Zm.524-4.093a3.28,3.28,0,0,0-2.06.578.959.959,0,0,0-.04,1.348,1.074,1.074,0,0,0,.666.279.88.88,0,0,0,.641-.307,1.751,1.751,0,0,0,.387-.846A2.928,2.928,0,0,1,7,11.179H6.927Zm9.717-3.333A1.555,1.555,0,1,0,18.2,9.4,1.557,1.557,0,0,0,16.644,7.845Zm-7.05,0A1.555,1.555,0,1,0,11.148,9.4,1.557,1.557,0,0,0,9.594,7.845Z" fill="#63ade6"/>
</svg>
