<svg xmlns="http://www.w3.org/2000/svg" width="25.693" height="25.697" viewBox="0 0 25.693 25.697">
  <path id="fear_chart" data-name="fear chart" d="M21.176,25.7H4.517A4.522,4.522,0,0,1,0,21.18V4.518A4.523,4.523,0,0,1,4.517,0H21.176a4.523,4.523,0,0,1,4.517,4.518V21.179A4.523,4.523,0,0,1,21.176,25.7ZM12.847,13.172a3.459,3.459,0,0,0-3.18,3.676,3.46,3.46,0,0,0,3.18,3.677,3.46,3.46,0,0,0,3.18-3.677A3.459,3.459,0,0,0,12.847,13.172Zm3.6-5.666c-.559,0-1.013.689-1.013,1.536s.455,1.537,1.013,1.537,1.013-.69,1.013-1.537S17.005,7.506,16.447,7.506Zm-6.967,0c-.559,0-1.013.689-1.013,1.536S8.921,10.58,9.48,10.58s1.013-.69,1.013-1.537S10.038,7.506,9.48,7.506Zm7.128-1.052h0a1.045,1.045,0,0,1,1,.909.618.618,0,0,0,.609.515.713.713,0,0,0,.107-.009.622.622,0,0,0,.5-.716,2.246,2.246,0,0,0-2.206-1.938c-.075,0-.152,0-.229.01a.619.619,0,0,0,.049,1.237l.052,0C16.535,6.455,16.572,6.454,16.608,6.454ZM9.3,5.214a1.842,1.842,0,0,0-1.429.528,2.949,2.949,0,0,0-.771,1.41.621.621,0,0,0,.5.716.609.609,0,0,0,.106.009.619.619,0,0,0,.61-.515,1.045,1.045,0,0,1,1-.909c.036,0,.074,0,.111,0l.052,0a.619.619,0,0,0,.05-1.237C9.451,5.217,9.372,5.214,9.3,5.214Z" transform="translate(0 0)" fill="#8f2eda"/>
</svg>
