<svg xmlns="http://www.w3.org/2000/svg" width="20.203" height="22.388" viewBox="0 0 20.203 22.388">
  <defs>
    <style>
      .cls-1 {
        fill: #072ac8;
      }
    </style>
  </defs>
  <g id="filter_2_" data-name="filter (2)" transform="translate(-24.988 0)">
    <path id="Path_586" data-name="Path 586" class="cls-1" d="M44.144,0H26.035a1.046,1.046,0,0,0-.857,1.644l6.91,9.406a1.385,1.385,0,0,1,.247.791v9.441a1.105,1.105,0,0,0,1.766.884l3.068-2.312a1.68,1.68,0,0,0,.676-1.344v-6.67a1.384,1.384,0,0,1,.247-.791L45,1.644A1.046,1.046,0,0,0,44.144,0ZM37.029,10.281a2.689,2.689,0,0,0-.5,1.561v6.67a.363.363,0,0,1-.147.291c-.081.06.531-.4-2.739,2.065V11.841a2.69,2.69,0,0,0-.487-1.548l-4.51-6.139H41.53Zm5.465-7.438H27.686l-1.124-1.53H43.618Z" transform="translate(0)"/>
  </g>
</svg>
